<svg xmlns="http://www.w3.org/2000/svg" width="32" height="32" viewBox="0 0 32 32" id="person">
  <g>
    <g>
      <path d="M2.06934 14.50488a.58938.58938 0 00.07128.00489.49993.49993 0 00.49463-.42969A13.50922 13.50922 0 0120.82227 3.3877a.5004.5004 0 00.35546-.93555A14.51152 14.51152 0 001.645 13.93945.4997.4997 0 002.06934 14.50488zM29.89893 11.85645a.50005.50005 0 10-.958.2871A13.47437 13.47437 0 0125.75751 25.304a14.43854 14.43854 0 00-6.8393-3.504 6.5 6.5 0 10-5.83636 0 14.43884 14.43884 0 00-6.83722 3.50219 13.41048 13.41048 0 01-3.60938-7.3822.50008.50008 0 10-.99023.14063 14.5019 14.5019 0 1028.25391-6.2041zM10.5 16A5.5 5.5 0 1116 21.5 5.50654 5.50654 0 0110.5 16zM6.96686 25.99585a13.41873 13.41873 0 0118.07062.00384 13.40609 13.40609 0 01-18.07062-.00384z"></path>
      <path d="M21.06543,4.874a.501.501,0,0,0,.12646.5127l1.92676,1.877L22.66357,9.915a.50021.50021,0,0,0,.49268.585.49043.49043,0,0,0,.23242-.05762l2.38184-1.252,2.38135,1.252A.49981.49981,0,0,0,28.877,9.915l-.45459-2.65137,1.92676-1.87695a.50057.50057,0,0,0-.27734-.85352l-2.66211-.38672L26.21875,1.7334a.52158.52158,0,0,0-.89648,0L24.13135,4.14648l-2.66211.38672A.4993.4993,0,0,0,21.06543,4.874Zm3.46973.22461a.50137.50137,0,0,0,.37646-.27343L25.77051,3.085l.85888,1.74024a.50138.50138,0,0,0,.37647.27343l1.91943.27832L27.53613,6.73047a.50135.50135,0,0,0-.14355.44336l.32763,1.91211-1.71728-.90235a.50136.50136,0,0,0-.46484,0l-1.71778.90235.32813-1.91211a.50133.50133,0,0,0-.14356-.44336L22.61572,5.377Z"></path>
      <circle cx="2" cy="16" r=".5"></circle>
    </g>
  </g>
</svg>
